<?xml version="1.0" encoding="UTF-8"?>
<svg id="Layer_1" data-name="Layer 1" xmlns="http://www.w3.org/2000/svg" viewBox="0 0 64 64">
  <defs>
    <style>
      .cls-1 {
        fill: #0cc;
        fill-rule: evenodd;
      }

      .cls-2 {
        fill: #2285cc;
      }
    </style>
  </defs>
  <path class="cls-2" d="M47.9819,44c4.7547,0,8.6091-3.8544,8.6091-8.6091,0-4.4738-3.4131-8.1483-7.7772-8.5671-1.0566-7.2501-7.2813-12.8238-14.8245-12.8238-5.8939,0-10.9794,3.4078-13.4318,8.353-.7147-.1469-1.4546-.2244-2.2127-.2244-6.0396,0-10.9357,4.8961-10.9357,10.9357,0,5.1208,3.4358,9.4868,8.1879,10.6763,.7027,.1482,1.3446,.2595,2.0227,.2595"/>
  <path class="cls-1" d="M13.0352,8.6181l-1.4119-5.6554-4.2452,15.8433,15.8433-4.2452-5.5507-1.3858c5.0975-5.1167,12.0968-8.3045,19.402-8.7804,6.607-.4789,13.3332,1.2616,18.9959,4.7911,.3776,.2354,.7632-.2912,.4204-.5749-12.2793-10.1669-30.8165-10.131-43.4537,.0073Z"/>
  <path class="cls-1" d="M50.9648,55.3819l1.4119,5.6554,4.2452-15.8433-15.8433,4.2452,5.5507,1.3858c-5.0975,5.1167-12.0968,8.3045-19.402,8.7804-6.607,.4789-13.3332-1.2616-18.9959-4.7911-.3776-.2354-.7632,.2912-.4204,.5749,12.2793,10.1668,30.8165,10.131,43.4537-.0074Z"/>
</svg>