<?xml version="1.0" encoding="UTF-8"?>
<svg id="Layer_1" data-name="Layer 1" xmlns="http://www.w3.org/2000/svg" viewBox="0 0 16 16">
  <defs>
    <style>
      .cls-1 {
        fill: #0cc;
        fill-rule: evenodd;
      }

      .cls-2 {
        fill: #2285cc;
      }
    </style>
  </defs>
  <path class="cls-2" d="M12.0377,11.0317c1.2012,0,2.175-.9738,2.175-2.175,0-1.1303-.8623-2.0586-1.9649-2.1644-.2669-1.8317-1.8396-3.2399-3.7453-3.2399-1.4891,0-2.7739,.861-3.3935,2.1103-.1806-.0371-.3675-.0567-.559-.0567-1.5259,0-2.7628,1.237-2.7628,2.7628,0,1.2937,.868,2.3968,2.0686,2.6973,.1775,.0375,.3397,.0656,.511,.0656"/>
  <path class="cls-1" d="M3.2087,2.0927l-.3567-1.4288L1.7794,4.6666l4.0027-1.0725-1.4024-.3501c1.2878-1.2927,3.0562-2.0981,4.9018-2.2183,1.6692-.121,3.3685,.3187,4.7992,1.2104,.0954,.0595,.1928-.0736,.1062-.1453-3.1023-2.5686-7.7856-2.5595-10.9783,.0019Z"/>
  <path class="cls-1" d="M12.7913,13.9073l.3567,1.4288,1.0725-4.0027-4.0027,1.0725,1.4024,.3501c-1.2878,1.2927-3.0562,2.0981-4.9018,2.2183-1.6692,.121-3.3685-.3187-4.7992-1.2104-.0954-.0595-.1928,.0736-.1062,.1453,3.1023,2.5686,7.7856,2.5595,10.9783-.0019Z"/>
</svg>